<?xml version="1.0" standalone="no"?>
<!DOCTYPE svg PUBLIC "-//W3C//DTD SVG 20010904//EN"
 "http://www.w3.org/TR/2001/REC-SVG-20010904/DTD/svg10.dtd">
<svg version="1.0" xmlns="http://www.w3.org/2000/svg"
 width="700.000000pt" height="700.000000pt" viewBox="0 0 700.000000 700.000000"
 preserveAspectRatio="xMidYMid meet">
<metadata>
Created by potrace 1.14, written by Peter Selinger 2001-2017
</metadata>
<g transform="translate(0.000000,700.000000) scale(0.100000,-0.100000)"
fill="#000000" stroke="none">
<path d="M1174 6976 c-257 -67 -460 -250 -545 -492 -22 -64 -24 -71 -37 -154
-9 -60 -9 -5652 1 -5685 3 -11 8 -33 12 -50 40 -173 160 -349 310 -454 71 -50
184 -101 256 -117 13 -2 44 -9 69 -14 53 -11 4512 -9 4549 2 13 4 49 15 80 24
263 76 471 306 533 589 14 63 20 4257 6 4318 -25 114 -12 99 -980 1068 -849
849 -922 920 -985 951 l-68 33 -1555 2 -1555 2 -91 -23z"/>
</g>
</svg>
